<svg width="25" height="24" viewBox="0 0 25 24" fill="none" xmlns="http://www.w3.org/2000/svg">
<path d="M16.253 10.6569L12.303 6.70692C12.1208 6.51832 12.02 6.26571 12.0223 6.00352C12.0246 5.74132 12.1298 5.49051 12.3152 5.3051C12.5006 5.11969 12.7514 5.01452 13.0136 5.01224C13.2758 5.00997 13.5284 5.11076 13.717 5.29292L19.374 10.9499C19.4672 11.0426 19.5411 11.1527 19.5916 11.2741C19.642 11.3954 19.668 11.5255 19.668 11.6569C19.668 11.7883 19.642 11.9184 19.5916 12.0398C19.5411 12.1611 19.4672 12.2713 19.374 12.3639L13.717 18.0209C13.6247 18.1164 13.5144 18.1926 13.3924 18.245C13.2704 18.2974 13.1392 18.325 13.0064 18.3262C12.8736 18.3273 12.7419 18.302 12.619 18.2517C12.4961 18.2015 12.3845 18.1272 12.2906 18.0333C12.1967 17.9394 12.1225 17.8278 12.0722 17.7049C12.0219 17.582 11.9966 17.4503 11.9977 17.3175C11.9989 17.1847 12.0265 17.0535 12.0789 16.9315C12.1313 16.8095 12.2075 16.6992 12.303 16.6069L16.253 12.6569H6.66699C6.40178 12.6569 6.14742 12.5516 5.95989 12.364C5.77235 12.1765 5.66699 11.9221 5.66699 11.6569C5.66699 11.3917 5.77235 11.1373 5.95989 10.9498C6.14742 10.7623 6.40178 10.6569 6.66699 10.6569H16.253Z" fill="#E2E8F0"/>
</svg>
